<svg id="Layer_1" data-name="Layer 1" xmlns="http://www.w3.org/2000/svg" xmlns:xlink="http://www.w3.org/1999/xlink" viewBox="0 0 665.5 400"><defs><style>.cls-1,.cls-5{fill:none;}.cls-2,.cls-6{fill:#bbdefb;}.cls-2,.cls-3,.cls-4,.cls-5,.cls-6{stroke:#304ffe;stroke-miterlimit:10;}.cls-3{fill:#90caf9;}.cls-4{fill:#fff;}.cls-6{stroke-width:0.86px;}.cls-7{clip-path:url(#clip-path);}.cls-8{opacity:0.03;}</style><clipPath id="clip-path"><path id="_Rectangle_" data-name="&lt;Rectangle&gt;" class="cls-1" d="M110,20H590a10,10,0,0,1,10,10V350a0,0,0,0,1,0,0H100a0,0,0,0,1,0,0V30A10,10,0,0,1,110,20Z"/></clipPath></defs><title>coding-icon</title><path id="_Rectangle_2" data-name="&lt;Rectangle&gt;" class="cls-2" d="M110,20H590a10,10,0,0,1,10,10V350a0,0,0,0,1,0,0H100a0,0,0,0,1,0,0V30A10,10,0,0,1,110,20Z"/><path id="_Rectangle_3" data-name="&lt;Rectangle&gt;" class="cls-3" d="M40,350H660a5,5,0,0,1,5,5v5a20,20,0,0,1-20,20H55a20,20,0,0,1-20-20v-5a5,5,0,0,1,5-5Z"/><rect id="_Rectangle_4" data-name="&lt;Rectangle&gt;" class="cls-4" x="124.02" y="49.21" width="451.95" height="282.43" rx="3" ry="3"/><circle id="_Path_" data-name="&lt;Path&gt;" class="cls-5" cx="350" cy="36.65" r="3"/><path class="cls-6" d="M339.69,244.1L295.61,200l43.91-43.91a2.31,2.31,0,0,0-3.26-3.26L290.6,198.52a2.22,2.22,0,0,0,.17,3.18l45.66,45.66A2.31,2.31,0,0,0,339.69,244.1Z"/><path class="cls-6" d="M360.26,155.9l44.16,44.16L360.52,244a2.31,2.31,0,0,0,3.26,3.26l45.66-45.66a2.33,2.33,0,0,0-.26-3.27l-45.66-45.66A2.31,2.31,0,1,0,360.26,155.9Z"/><g class="cls-7"><polygon class="cls-8" points="100 400 0 0 427 0 279 400 100 400"/></g></svg>