<svg id="Layer_1" data-name="Layer 1" xmlns="http://www.w3.org/2000/svg" viewBox="0 0 439.55 380.56"><defs><style>.cls-1{fill:#fff;}.cls-1,.cls-2{stroke:#00e676;stroke-miterlimit:10;stroke-width:1.12px;}.cls-2{fill:#b9f6ca;}.cls-3{opacity:0.05;}</style></defs><title>feedback-icon</title><path id="_Path_" data-name="&lt;Path&gt;" class="cls-1" d="M290.45,10c-125,0-159.67,37-159.67,122.1,0,47.4,20.68,79.87,60.61,99.35l19.41,61.82,54.7-42.13a486.83,486.83,0,0,0,56.88,3.06c125,0,127.73-37,127.73-122.1S415.46,10,290.45,10Z" transform="translate(-130.23 -9.44)"/><circle id="_Path_2" data-name="&lt;Path&gt;" class="cls-2" cx="168.34" cy="126.26" r="12.55"/><circle id="_Path_3" data-name="&lt;Path&gt;" class="cls-2" cx="128.53" cy="126.26" r="12.55"/><circle id="_Path_4" data-name="&lt;Path&gt;" class="cls-2" cx="208.14" cy="126.26" r="12.55"/><path id="_Path_5" data-name="&lt;Path&gt;" class="cls-1" d="M569.21,178.68c0-70-34.53-84.53-121.16-84.53s-117.4,37-117.4,107.07,9.17,92,95.8,92c25.12,0,47.67-3.75,67-10.78l42.1,18L534,259.13C556.56,239.41,569.21,211.92,569.21,178.68Z" transform="translate(-130.23 -9.44)"/><path id="_Path_6" data-name="&lt;Path&gt;" class="cls-2" d="M461.95,174.51a14.91,14.91,0,0,0-12,6.11,14.95,14.95,0,0,0-25.79,14.66v0a14.94,14.94,0,0,0,2,3.46l23.64,24.63c7.92-7.93,16.82-17.34,23.88-24.71a14.94,14.94,0,0,0,2-3.46v0A15,15,0,0,0,461.95,174.51Z" transform="translate(-130.23 -9.44)"/><ellipse id="_Path_7" data-name="&lt;Path&gt;" class="cls-3" cx="159.84" cy="331.94" rx="100.88" ry="9.95"/><ellipse id="_Path_8" data-name="&lt;Path&gt;" class="cls-3" cx="327.57" cy="370.61" rx="73" ry="9.95"/></svg>