<?xml version="1.0" encoding="utf-8"?>
<!-- Generator: Adobe Illustrator 19.2.0, SVG Export Plug-In . SVG Version: 6.00 Build 0)  -->
<svg version="1.1" id="Layer_1" xmlns="http://www.w3.org/2000/svg" xmlns:xlink="http://www.w3.org/1999/xlink" x="0px" y="0px"
	 viewBox="0 0 600 500.1" style="enable-background:new 0 0 600 500.1;" xml:space="preserve">
<style type="text/css">
	.st0{fill:none;stroke:#651FFF;stroke-width:2;stroke-miterlimit:10;}
	.st1{display:none;fill:#EDE7F6;stroke:#651FFF;stroke-width:1.8845;stroke-miterlimit:10;}
	.st2{fill:#EDE7F6;stroke:#651FFF;stroke-width:2;stroke-miterlimit:10;}
	.st3{fill:#FFFFFF;stroke:#651FFF;stroke-width:2;stroke-miterlimit:10;}
	.st4{clip-path:url(#SVGID_2_);}
	.st5{fill:none;stroke:#651FFF;stroke-width:3.7689;stroke-miterlimit:10;}
	.st6{fill:#EDE7F6;stroke:#651FFF;stroke-width:2.7136;stroke-miterlimit:10;}
</style>
<title>bug-icon</title>
<g id="_Group_">
	<g id="layer1">
		<path id="path4263" class="st0" d="M134.9,98.2c-6.5,0-12.3,0-16.9,4.5c-6.5,6.5-5.8,24.6-4.5,34.4c-7.8,1.9-16.2,4.5-23.4,8.4
			c-5.8-8.4-16.9-22.1-26-23.4c-6.5-0.7-11.7,3.9-16.2,8.4c-4.5,3.9-9.7,8.4-9.7,14.3c-0.7,9.1,11,22.7,18.2,29.2
			c-5,6.8-9.1,14.2-12.3,22.1c-9.7-2.6-26.6-6.5-34.4-1.3c-5.2,3.9-6.5,10.4-7.1,16.9c-0.7,6.5-1.9,12.3,1.3,17.5
			c5.2,7.1,22.7,9.7,32.4,11c0.6,8.6,2.1,17.1,4.5,25.3c-9.1,4.5-24,13-26.6,21.4c-1.9,6.5,1.3,11.7,5.2,17.5
			c3.2,5.2,6.5,11,12.3,12.3c8.4,1.9,23.4-7.1,31.8-12.3c2.7,3.4,5.8,6.4,9.1,9.1c3.2,2.7,6.7,5.1,10.4,7.1
			c-3.9,9.1-10.4,25.3-7.1,33.7c2.6,5.8,9.1,8.4,15.6,10.4c5.8,1.9,11.7,3.9,16.9,1.3c7.8-3.9,13.6-20.8,16.2-30.5
			c8.2,1.3,16.5,1.3,24.6,0c2.6,9.7,8.4,26.6,16.2,30.5c5.8,2.6,12.3,0.7,18.2-1.9c5.8-2.6,11.7-4.5,14.3-10.4
			c3.9-8.4-2.6-24.6-7.1-33.7c7-4.5,13.3-10,18.8-16.2c8.4,5.8,23.4,14.9,31.8,13c5.8-1.3,9.7-7.1,13-13.6c3.2-5.8,5.8-11,4.5-16.9
			c-2.6-9.1-18.2-17.5-27.2-22.1c2.5-8,4-16.3,4.5-24.6c9.7-0.7,27.2-3.2,33.1-11c3.9-5.2,2.6-11.7,1.3-18.8
			c-1.3-6.5-2.6-12.3-7.1-16.2c-7.8-5.2-25.3-1.3-34.4,1.3c-3.1-7.7-7.2-14.9-12.3-21.4c7.1-7.1,18.8-20.8,18.2-29.8
			c-0.7-6.5-5.8-11-11-14.9c-5.2-3.9-9.7-7.8-15.6-7.1c-9.1,0.7-20.1,15.6-26,23.4c-7.3-4-15.2-6.9-23.4-8.4
			c0.7-9.7,1.3-27.9-4.5-34.4C148.5,98.2,142,98.2,134.9,98.2z M135.6,188.3c24.7,0,44.8,20,44.8,44.8c0,24.7-20,44.8-44.8,44.8
			s-44.8-20-44.8-44.8C90.9,208.4,110.9,188.4,135.6,188.3z"/>
	</g>
</g>
<g id="_Group_2">
	<g id="layer1-2">
		<path id="path4263-2" class="st0" d="M280.3,317.6c-4.3,0-7.9,0-11,3.1c-4.3,4.3-3.7,15.9-3.1,22.6c-5.3,1.2-10.4,3-15.2,5.5
			c-3.7-5.5-11-14.7-17.1-15.3c-4.3-0.6-7.3,2.4-11,5.5c-3.1,2.4-6.1,5.5-6.7,9.2c-0.6,6.1,7.3,14.7,11.6,19.5
			c-3.6,4.3-6.3,9.3-7.9,14.7c-6.1-1.8-17.7-4.3-22.6-0.6c-3.7,2.4-4.3,6.7-4.9,11c-0.6,4.3-1.3,7.9,1.3,11.6
			c3.7,4.9,14.7,6.7,21.4,7.3c0.1,5.6,1.2,11.2,3.1,16.5c-6.1,3.1-15.9,8.6-17.7,14c-1.3,4.3,1.3,7.9,3.1,11.6
			c1.8,3.7,4.3,7.3,7.9,7.9c5.5,1.3,15.3-4.3,20.8-8.6c1.9,2.2,3.9,4.2,6.1,6.1c2,2,4.2,3.6,6.7,4.9c-2.4,6.1-6.7,16.5-4.3,22
			c1.8,3.7,6.1,5.5,9.8,6.7c3.7,1.2,7.9,2.4,11,1.3c5.5-2.4,9.2-13.4,10.4-20.1c5.5,0.6,11,0.6,16.5,0c1.8,6.1,5.5,17.1,10.4,20.1
			c3.7,1.8,7.9,0.6,12.2-1.3c3.7-1.3,7.9-3.1,9.2-6.7c2.4-5.5-1.8-15.9-4.9-22c4.5-3.2,8.6-6.9,12.2-11c5.5,3.7,15.3,9.8,20.8,8.6
			c4.3-1.3,6.1-4.9,8.6-8.6c1.8-3.7,4.3-7.3,3.1-11c-1.8-6.1-12.2-11.6-17.7-14c1.6-5.4,2.6-10.9,3.1-16.5
			c6.7-0.6,18.3-2.4,21.4-7.3c2.4-3.7,1.8-7.9,0.6-12.2c-0.6-4.3-1.8-8.6-4.9-10.4c-4.9-3.7-16.5-0.6-22.6,0.6c-2-5-4.7-9.7-7.9-14
			c4.3-4.9,12.2-13.4,12.2-19.5c-0.6-4.3-3.7-7.3-7.3-9.8c-3.1-2.4-6.1-4.9-10.4-4.9c-6.1,0.6-13.4,9.8-17.1,15.3
			c-4.8-2.5-10-4.3-15.3-5.5c0.6-6.7,1.3-18.3-3.1-22.6C289.5,317.6,284.6,317.6,280.3,317.6z M280.9,376.8
			c16.2,0,29.3,13.1,29.3,29.3c0,16.2-13.1,29.3-29.3,29.3c-16.1-0.2-29.1-13.2-29.3-29.3c-0.2-16,12.5-29.1,28.5-29.3
			C280.3,376.8,280.6,376.8,280.9,376.8L280.9,376.8z"/>
	</g>
</g>
<g id="_Group_3">
	<g id="layer1-3">
		<path id="path4263-3" class="st0" d="M342.8,5c-5,0-9.5,0-13,3.5c-5,5-4.5,19-3.5,26.5c-6.2,1.4-12.3,3.6-18,6.5
			c-4.5-6.5-13-17-20-18c-5-0.5-9,3-12.5,6.5c-3.5,3-7.5,6.5-7.5,11c-0.5,7,8.5,17.5,14,22.5c-3.8,5.3-7,11-9.5,17
			c-7.5-2-20.5-5-26.5-1c-4,3-5,8-5.5,13c-0.5,5-1.5,9.5,1,13.5c4,5.5,17.5,7.5,25,8.5c0.4,6.6,1.6,13.1,3.5,19.5
			c-7,3.5-18.5,10.1-20.5,16.5c-1.5,5,1,9,4,13.5c2.5,4,5,8.5,9.5,9.5c6.5,1.5,18-5.5,24.5-9.5c2.1,2.6,4.4,4.9,7,7
			c2.5,2.1,5.1,4,8,5.5c-3,7-8,19.5-5.5,26c2,4.5,7,6.5,12,8c4.5,1.5,9,3,13,1c6-3,10.5-16,12.5-23.5c6.3,1,12.7,1,19,0
			c2,7.5,6.5,20.5,12.5,23.5c4.5,2,9.5,0.5,14-1.5c4.5-2,9-3.5,11-8c3-6.5-2-19-5.5-26c5.4-3.5,10.2-7.7,14.5-12.5
			c6.5,4.5,18,11.5,24.5,10.1c4.5-1,7.5-5.5,10.1-10.5c2.5-4.5,4.5-8.5,3.5-13c-2-7-14-13.5-21-17c1.9-6.2,3.1-12.5,3.5-19
			c7.5-0.5,21-2.5,25.5-8.5c3-4,2-9,1-14.5c-1-5-2-9.5-5.5-12.5c-6-4-19.5-1-26.5,1c-2.4-5.9-5.6-11.5-9.5-16.5
			c5.5-5.5,14.5-16,14-23c-0.5-5-4.5-8.5-8.5-11.5s-7.5-6-12-5.5c-7,0.5-15.5,12-20,18c-5.6-3.1-11.7-5.3-18-6.5
			c0.5-7.5,1-21.5-3.5-26.5C353.3,5,348.3,5,342.8,5z M343.3,74.4c19,0,34.5,15.5,34.4,34.5c0,19-15.5,34.5-34.5,34.4
			c-19,0-34.4-15.4-34.4-34.5C308.8,89.9,324.3,74.5,343.3,74.4z"/>
	</g>
</g>
<path class="st1" d="M492.9,121.5C457,66.4,382.5,50.1,327.2,85.7c-56.5,36.4-72.4,112.1-35.3,167.8
	c34.1,51.3,101.8,67.3,154.1,40.8l127.8,192.1c1.7,2.6,5.2,3.3,7.8,1.6c0,0,0,0,0,0l14.1-9.3c2.6-1.7,3.3-5.2,1.6-7.8c0,0,0,0,0,0
	L469.5,278.7C515.7,239.7,525.7,172.3,492.9,121.5z"/>
<path class="st2" d="M525.4,98.8c-38-58.1-116.1-74.2-174.1-35.8c-57.6,38.2-73.4,115.2-35.5,173c35.2,53.7,104.6,71.6,160.7,43.5
	L569.8,422c0.9,1.4,2.8,1.8,4.2,0.9l19.5-12.7c1.4-0.9,1.8-2.8,0.9-4.2L501,263.5C549.2,223.3,560.6,152.6,525.4,98.8z"/>
<ellipse transform="matrix(0.3929 -0.9196 0.9196 0.3929 101.3975 488.4498)" class="st3" cx="420.6" cy="167.4" rx="100" ry="100"/>
<g>
	<defs>
		
			<ellipse id="SVGID_1_" transform="matrix(0.9981 -6.216335e-02 6.216335e-02 0.9981 -9.5961 26.4718)" cx="420.6" cy="167.5" rx="100" ry="100"/>
	</defs>
	<clipPath id="SVGID_2_">
		<use xlink:href="#SVGID_1_"  style="overflow:visible;"/>
	</clipPath>
	<g class="st4">
		<g id="_Group_4">
			<g id="layer1-4">
				<path id="path4263-4" class="st5" d="M192-61.2c-7.7,6-14.5,11.3-15.7,20.8C174.6-26.8,192.1-6,202.6,4.3
					c-7.3,9.4-14.9,20.3-19.8,31.4c-14.6-4.5-40.1-10.5-52.1-3.6c-8.2,5.2-10.2,15.3-11.4,24.9c-1.8,8.8-3.7,18.9,1.6,25.8
					c7.5,11.4,33.9,16.7,48.3,17.8c0.4,12.6,2.3,25.2,5.7,37.3c-13.9,5.9-37.3,16.8-41.7,30.1c-2.5,9.4,1.9,18.2,7.1,26.5
					c5.2,8.2,9,16.3,17.6,19.5c12.7,3.7,35.7-9.4,48.4-16.8c8.6,9.6,18.2,18.2,28.6,25.7c-6.5,13.7-16.4,37.4-11.7,49.7
					c3.7,9.4,12.3,12.6,22.2,15.9c8.6,3.1,17.8,7,25.9,3.2c11.7-5.5,21-29.9,26.2-43.8c6.2,1.5,12.6,2.3,19.1,2.4
					c6.3,0.3,12.6-0.1,18.8-1.1c3.8,14.3,11,39.3,22.6,46.4c8.4,4.5,18.5,1.6,27.9-2.1c8.7-3.1,17.3-6.1,21.1-14
					c5.6-11.7-3.1-37-8.9-50.9c10.8-6,20.6-13.6,29.1-22.7c12,9.1,34.4,23.6,47.2,21c9.3-2.3,15.1-10.6,19.6-19
					c4.5-8.4,9.6-16.1,7.3-25.4c-3.2-13.5-25.7-26.7-39.4-33.2c4.1-11.8,6.5-24,7.3-36.4c15.3-0.9,41.3-3.9,49.4-13.9
					c5.7-6.9,4.9-17.4,2.8-28c-1.5-9.9-3.3-18.4-10.2-24.1c-11.4-8.3-37.5-4-52.4-1c-4.1-11.6-10.3-22.7-17.3-33.3
					c10.9-9.7,29.1-28.9,28.9-43.4c-0.2-9.7-7.7-16.2-15.8-23.4c-7.5-6.5-14.4-12.2-23.3-12.6c-14,1.1-31.1,21.8-39.4,33.2
					c-10.7-6.2-22.2-10.9-34.2-13.9c1.9-15,3.1-41.8-6-51.9c-6.7-7-17-7.6-26.7-7.5s-18.6-0.2-24.9,5.9c-10.1,9.1-9.4,36.9-9.1,51.4
					c-12,2-24.9,5.9-35.3,11.5c-8.2-12.1-24.1-34.1-37-36.4C208.1-73.7,200.5-67.8,192-61.2z M275.7,44.5
					c29.2-22.7,71.2-17.5,93.9,11.6c22.7,29.2,17.5,71.2-11.6,93.9c-29.2,22.7-71.2,17.5-93.9-11.6c0,0,0,0,0,0
					C241.4,109.3,246.6,67.3,275.7,44.5z"/>
			</g>
		</g>
	</g>
</g>
<path class="st6" d="M406,186.6l7.9-5.1l4.1,6.3l-7.9,5.1L406,186.6z M417,143.4l12.4,18.9l-11.8,7.7l4.1,6.3l3.9-2.6l4.1,6.3
	l-7.9,5.1l-4.1-6.3l-3.9,2.6l-4.1-6.3l-7.9,5.1l4.1,6.3l-3.9,2.6l4.1,6.3l-7.9,5.1l-4.1-6.3l4-2.6l-4.1-6.3l-11.8,7.7l-12.4-18.9
	l3.9-2.6l-4.1-6.3l11.8-7.7l-4.1-6.3l15.7-10.3l4.1,6.3l11.8-7.7l4.1,6.3L417,143.4L417,143.4z M393.7,167.7l-7.8,5.1l4.1,6.3
	l7.9-5.1L393.7,167.7L393.7,167.7z M409.4,157.5l-7.9,5.1l4.1,6.3l7.9-5.1L409.4,157.5z M441.7,181.2l-4.1-6.3l-7.9,5.1l4.1,6.3
	L441.7,181.2z M394.6,212l7.9-5.1l-4.1-6.3l-7.9,5.1L394.6,212z"/>
</svg>
