<?xml version="1.0" encoding="utf-8"?>
<!-- Generator: Adobe Illustrator 19.2.0, SVG Export Plug-In . SVG Version: 6.00 Build 0)  -->
<svg version="1.1" id="Layer_1" xmlns="http://www.w3.org/2000/svg" xmlns:xlink="http://www.w3.org/1999/xlink" x="0px" y="0px"
	 viewBox="0 0 665.5 400" style="enable-background:new 0 0 665.5 400;" xml:space="preserve">
<style type="text/css">
	.st0{fill:#BBDEFB;}
	.st1{fill:#4A65FE;}
	.st2{fill:#90CAF9;}
	.st3{fill:#FFFFFF;}
	.st4{fill:none;stroke:#304FFE;stroke-miterlimit:10;}
	.st5{fill:#BBDEFB;stroke:#304FFE;stroke-width:0.86;stroke-miterlimit:10;}
</style>
<title>coding-icon</title>
<g id="_Rectangle_2">
	<path class="st0" d="M89.5,19.8h480c5.5,0,10,4.5,10,10v320l0,0h-500l0,0v-320C79.5,24.3,84,19.8,89.5,19.8z"/>
	<g>
		<g>
			<g>
				<g>
					<path class="st1" d="M93.5,19.3c-6.1,0.1,3.3,0.3-4,0.1C90.4,19.3,91.5,19.2,93.5,19.3z"/>
					<path class="st1" d="M79.2,34.2c0.8,19.5,0,45.2,0.5,66.6c0,2.5-0.4-0.7-0.3,5c0.6,20.7,0.2,53.4-0.2,78.6l-0.1-1.5
						c-0.1,4.8,0.3,10.7,0.3,15.8c-0.1,0-0.1-1.6-0.2-0.4c0.2,1.3,0.1,9.2,0.3,11.4c-0.1,2-0.3,1.8-0.4,4.4l0.3,2.9
						c0.6,8.1,0,19.7,0.3,30.7c-0.1-0.5-0.1-1.6-0.2-0.7c0.4,17.8,0.3,40,0.5,59.8c-0.1-0.8-0.3-1.5-0.4-0.4c0.3,1,0.4,7.1,0.4,12.4
						c-0.3,2.4,0.3,9.1,0.1,15.4l-0.1-0.5c0.3,4.6-0.2,6.8,0.2,10.6l-0.2,2.9c0,0.2,0.1,0.3,0.1,0.5c0,0.2,0,0.3,0,0.5
						c0,0.4,0,0.8,0,1.2c1,0,2.2,0.1,3.4,0.1c1.3,0,2.7,0.1,4,0l-0.1-0.1c3.6-0.1,5.5,0.1,8.8,0l0.3,0c7.8-0.1,12.3,0.1,12.2-0.2
						c2.7,0.3-7.6,0.1-3.3,0.5c25.7-0.3,52.2-0.3,78-0.3c2.9,0.1,4.8,0.2,5.5,0.3c2.6-0.1,9.7-0.1,12.1-0.2c-0.9,0,1.7,0.2,3,0.2
						c4.7,0.1,5.1-0.4,10.3-0.2c-2.1,0.1-2.7,0.2-2.1,0.3c4.4-0.2,10.3-0.2,15.5-0.3c-0.8,0.1-2.1,0.1-1.9,0.2
						c5.7-0.3,10.4,0.1,15.4-0.1l-1.9,0.2c8,0.2,2.4-0.4,9.3-0.3c-1.7,0.1-1.1,0.1-1.4,0.2c6.5-0.3,17-0.2,23.4-0.3
						c-0.4,0-0.3,0.1-0.3,0.1c7,0,14.4,0.1,22.2-0.1c2.8,0.1-0.9,0.5,6.5,0.4c-0.3-0.4,12.7-0.2,8.3-0.6c6.4,0.1,16.4,0.2,20.7,0.1
						c-2.9,0.1,3.1,0.5-2.2,0.5l4,0.2c-0.6,0.2-4.1-0.1-2.8,0.1c2.7,0,10.4-0.2,12.8-0.1c4.9-0.2,9.4-0.7,17.4-0.7
						c-3.7,0.1,2.1,0.4-0.4,0.5l11.1-0.7c2.6,0,0.6,0.3,4.4,0.2c-0.2-0.1,1.5-0.2,2.6-0.2c1,0,11-0.1,12.2,0.3
						c1.2,0.1-4.3,0.1-1.4,0.2c4.9,0,5.1-0.1,10-0.1l0.1,0c3.2,0.1,9.5-0.2,6-0.4c-2.2,0,0.9,0.2-2.5,0.1c2.3-0.2,8-0.3,12.8-0.3
						c-1.7,0.1-1.5,0.2-2.1,0.3c6.6-0.3,13.5-0.4,20.9-0.5c0.1-0.2-2.7,0.3-3.8,0.2c9.4,0.2,19.4-0.3,27.3,0c-1.3,0-0.7-0.2-0.6-0.2
						c4.5,0,4.3,0.3,7.3,0.2c0.3,0.1,3.7,0,6.7-0.1c1.6-0.1,0.8,0.1-1.9,0.1c4.2-0.1,21.2-0.4,31-0.1c-0.2-0.1,6-0.4,8.3-0.3
						l-0.9,0.2c2.1,0.1,7.5,0,7.9,0.2c4.8-0.3-18.5,0.2-12,0c1.7,0.2,9-0.4,7.6-0.1c4.5,0,8.9-0.3,13.2-0.1c-1.3,0-3.7,0.3,0,0.3
						c6.4,0,1.8-0.1,7-0.2l3.3-0.1c0.2-0.2,5.7,0,3.4-0.2c0.8,0.2,9.3-0.1,8.7,0.3l-0.9,0.3c2.8,0,4.5-0.3,6.7-0.4
						c0.4,0,1.1,0.1,1,0.1c0.4-0.4,6.6,0,9.9-0.3c5.8,0.2,14.8,0,17.5,0.3c0.4,0,0.8,0,1.1-0.1l0-0.7l0-0.4l0-0.6
						c0-0.9,0-1.8-0.1-2.8c0-1.9,0-3.8,0-6c0,1,0.1,2.4,0.2,2.7c0.1-3.2,0-4-0.1-6.9c0.1,0.7,0.3-6.4,0.4-10
						c-0.1-4.4-0.4-2.9-0.5-3.4c0.4-4.1-0.3-12.6,0.1-17.7c0.1,1.5,0.2,6.5,0.3,2.8c0.4-4.1-0.3-8.2-0.1-14.8l-0.4,1.6
						c0.2-2.9-0.2-9.7,0.2-9c-0.1-2.2,0.1-7.7-0.2-7c0.3-10.8-0.2-26.2,0.5-32.8c-0.1-1.5,0-5.4-0.2-4.6c-0.2,2.6,0.1,3.6,0,4.5
						c0-1.4-0.1-1.7-0.2-1.8c0.1-3.4,0.1-6,0.4-2.8c0.2-7.5-0.6-7.7-0.5-17.2c0.1,0.4,0.2-0.3,0.2-3.1l-0.3-5.3
						c0.1-6.1,0.3-3.5,0.6-3.6c0-3.3,0-7.3-0.2-8.8l0.3-4c-0.2,2.9-0.2-2.7-0.2-4.2l0.1,1.5c0.1-0.6,0-4.4,0-6.3
						c-0.2,0.4-0.2,4.3-0.3,6.4c-0.1-1.7-0.1-4.3-0.2-6.5c0.2,0.7,0.2-5.3,0.2-7.9c0.1-3-0.2-3.4-0.2-4.2c0.1-0.1,0-4.9,0.2-2.5
						c0,1-0.1,2.3,0,4c0.1-2,0.3-1.7,0.2-5.8c-0.1-3.1-0.5,0.8-0.3-5c0.1,1.5,0.2,1.8,0.2,3l0.1-5.5l-0.2-0.2
						c0.1-0.7,0.1-0.2,0.1-0.6c-0.2-1.6-0.1-8.3-0.3-9.6c0-2.8,0.2-5.8,0.2-8.4l0,0.5c0.1-3.2,0-7.5-0.1-10.2l0,0.1
						c0-1.8,0-5.9-0.1-8.1c0.2-4.4,0.8-1.5,0.6-6.4c0-4.5-0.4-7.1-0.6-5.3c0.2-8.1-0.2-17.3,0.1-24.8c-0.1-1.2-0.1-0.4-0.2-2.8
						c0.1-11.9-0.3-25.1,0.2-34.6c0.1,3.5,0.2,0.2,0.3,0.2c-0.2-2.8,0.2-3.4-0.1-4.4c-0.2,0.3-0.3,0-0.4,3.4
						c-0.1-7.1-0.1-17.9,0.1-21.8c-0.1,2-0.2,0.4-0.2-1.1c0.1,0.1,0.2-0.1,0.2-0.5c0-0.4,0-1.1-0.2-1.8c-0.3-1.5-1.4-3.3-2.8-4.4
						c0,0-0.5-0.2-0.5-0.2c0,0-0.4-0.4-0.9-0.7c-0.2-0.2-0.5-0.3-0.6-0.4c-0.2-0.1-0.3-0.2-0.3-0.2c-0.3-0.1-0.6-0.2-0.8-0.2
						c-0.3,0-0.5-0.1-0.8-0.1c-0.3,0-0.7-0.1-1.2-0.1c-0.6,0-1.3-0.1-2.2-0.1c-0.2-0.1-0.4-0.2-1.2-0.2c-4.1,0.2-9.9,0.4-14.3,0.3
						l-3.6-0.3c-1.9,0-5.1,0.2-1.8,0.3c-7.6-0.2-12.5-0.2-14.9-0.4c-13.1,0.6-32,0.6-47.2,0.6l0.4-0.1c-4.1-0.1-2.1,0.3-5,0.2
						c1.3-0.1-3.1-0.3,0.1-0.5c-5.8-0.2-7.5,0.3-11.3,0.3c-0.6,0.2,3.1-0.1,2.3,0.1c-0.7,0.1-8.1-0.1-9,0.1
						c-1.5-0.1-0.3-0.3,0.5-0.4l-3.6,0.1c-4.4-0.3,9.9-0.6,5.4-1l-3.3,0c-3.1-0.3,8.7-0.3,0.4-0.4c-3.6,0.1-6.6,0.6-3.5,0.7
						c-7.5,0.1-3.5,0.7-11.5,0.7c-2.2-0.2,6.4,0,4.9-0.3c-3.8-0.2-7.6,0.1-10.9,0c3.7,0.1,0.6,0.4-1.8,0.5c-4.1-0.1,2.6-0.3-3.1-0.3
						c-1,0.2-6.3,0.3-1.7,0.4c-2.1,0.4-6-0.1-9.1,0.2c-1.9-0.3,5.9-0.6-0.4-0.8c1,0.3-7.8,0.4-4.5,0.7c-2.5-0.1-2.7-0.3-0.9-0.4
						c-3.6-0.2-8.6,0.5-9.8,0l-1.2,0.3c-1.1-0.1-2.7-0.2-4.5-0.3c-3.1,0-10.1,0.4-9.8,0c-1,0-8.1,0-5.4,0.3c4.4,0.2,5.1-0.2,7.6,0.2
						c-3.1-0.3-6.4,0-9,0.1l-0.4-0.2c-1.5,0.1-5,0-6,0.2c1.2-0.1,0.6-0.2-0.7-0.2l-1.6,0.2c-6.2,0.1-1.5-0.4-7.5-0.3l4.6-0.2
						c-1,0-3.1-0.2-6-0.1c-1.1,0.2-3.2,0.5-4.2,0.6c-3.4,0.1-1.5-0.2-4.9,0l4.4-0.3c0.7-0.1-3-0.4-7.5-0.3c-2.9,0.1-7.4,0.4-2.8,0.5
						c-2.3,0-5.5-0.1-3.7-0.3c-5.2,0.1,0.7,0.2-3.8,0.4c-1.8-0.1-7.5-0.3-10.9-0.6l4.7-0.4l-3.1,0c4-0.3-2-0.2,0.2-0.5
						c-2.1,0-4.7,0.1-6.7,0.1c6.2,0.5-6.9,0.7-5.1,1.1c-8.5,0.1-5.3-1.1-14.1-0.4c1.4,0.1-2.7,0.5,2.6,0.3c-5.3,0-3.6,0.4-9.8,0.3
						c4.6-0.2-4.9-0.4,1.7-0.7c-0.4,0.1,3.7,0.1,4.7,0.1c-2.2-0.2,0.4-0.4-4.9-0.4c-3.3,0-7.8,0.1-7.2,0.3c0.1,0.3,5,0,2.9,0.2
						c-6.6,0.1-7.7-0.3-10.4,0.2c4.1,0,5.2,0.2,5.1,0.4l-4.8,0.1l0.9-0.2c-7.7-0.1-2.3,0.3-9.8,0.3l-3.5-0.3
						c1.8-0.3,10.9,0.1,9.6-0.3c-4.9,0-6.5,0.2-11.1,0.1c1,0,2.4-0.1,3.4-0.1c-1.7,0-3.5-0.6-10.4-0.3c-3.6,0.1-0.9,0.2-1,0.3
						c-7.8,0.1-10.1,0.2-15.2,0.3c1-0.3-8.9,0-3.3-0.4c2.6,0.2,13.9,0.2,16.6-0.1c-2.8-0.4,6.1,0.1,7.8-0.4c-6.3,0-6-0.4-7-0.7
						c-1.7,0-3.4,0.1-4.5,0.1c-0.7,0.2,1.5,0.2,1.7,0.5c-7-0.1-13.7,0.1-17.6,0.3c-2.3-0.1-1.6-0.4,1.2-0.4c-8.3,0.1-17.2,0-25.1,0
						c5.1,0.4-8.8,0.1-5.3,0.4c4.2,0.1,7.9,0.4,5.5,0.6c-2.6,0,0.1-0.2-1-0.3c-3.4,0.2-5.2-0.3-8.5,0c7.6-0.1,1.5-0.5,2.9-0.8
						c-5.5,0.2,0.2-0.2-5.2-0.2c-5.5,0.2-12.2,0.3-18.2,0.4c-7.6-0.3-19.3,0-26.1,0c-3.6-0.2-1.1-0.5-5-0.6c-4.5,0,3.4,0.4-3.4,0.2
						l0.6-0.1c-2,0.1-12.3-0.2-14.3,0.3l2.1-0.4c-1.3,0-2.4,0.1-3.5,0.1c0-0.1-1.5-0.2,0.5-0.3c-4.1-0.3-8.7,0-13.2,0.1l2.9,0.2
						c-7.7,0.2-12.9,0-20.3,0l0.2-0.2l-4.4,0.1c1.1-0.2-3-0.4-5.3-0.2l11.5-0.5c3.2,0.1-3.5,0.3-1.5,0.5c1.7,0.2,8.6,0.1,9.7-0.1
						c-2.6,0-2.8,0-4.8,0.1c-0.9-0.3,3.1-0.3,5.1-0.5c-1.4,0-3.4-0.1-3.6,0c2.7-0.2,5.5-0.2,10-0.2c-3.1,0.1,1.7,0.2,0.5,0.3
						c0.4-0.3,4.7-0.4,10.3-0.3c4,0.3,10.5-0.2,17-0.1c-2.6,0.3-6,0.5-9.9,0.6c4.1,0.1,4.5,0,8.6,0.1c2-0.2,3.4-0.5,8.7-0.6l0.3,0.2
						c4.8-0.1,4.8-0.4,10.9-0.3c10.5,0.1,21.3,0.1,29.3,0.1l0.3,0.2c4.5-0.4,14.9-0.2,20.9-0.4c10.2,0.2,22.2-0.2,27.4,0.2
						c18-0.2,33.8-0.3,52.4-0.2l-3.1,0.3c3.3-0.2,2.2,0.2,5.5,0.1c-3.8-0.2,4.5-0.3,6.9-0.5c8.3,0.2,19,0,26.4-0.2l0.3,0.2
						c7.5-0.4,16.3,0,25.6,0c1.1,0.1,2.7,0.3,5.5,0.3c5-0.3,7.7-0.3,15-0.5c5.4,0,14.1,0.1,19.6,0.2c20.3-0.5,41-0.2,62.1-0.4
						l1.5,0.2c20.4-0.5,45.6,0,63-0.3l-1.7,0.4c5.5,0.1,12.5-0.1,11.1-0.4c5.5,0.1,13.7-0.2,17.2,0.1c1.4,0,2.5,0,3.5,0
						c0.5,0,0.9,0,1.4,0c0.4,0,0.8,0,1.3,0c1.8,0,3.6,0.3,5.9,1.7c2.7,1.8,4.1,4.4,4.7,6.7c0.2,0.6,0.2,1.2,0.3,1.8
						c0,0.6,0.1,1.2,0.1,1.6c0,1,0,1.9,0,2.9c0,3.8,0,7.5,0.1,12.7l0-2.6c-0.1-1.2-0.3-1.3-0.3,1.4c0.1,3.9-0.1,14.5,0.4,10.6
						c-0.3,11.3,0.2,26.3-0.2,37.3c0.1-0.9,0.2,1.8,0.2,3c0,9.9-0.3,20.3,0,28.2c-0.1,1.6-0.2-2.5-0.2,1.5c0.1,2.4,0.2,0.1,0.2,3
						c0.2,16.1-0.3,32.5-0.2,47.1c0.3,26,0.1,53,0.2,77.9l-0.1-0.3c0.4,8.3-0.4,19.5,0.2,26.2c-0.1,2,0,7.5-0.2,6.1
						c0.3,6.6-0.2,18.6,0.1,28.2c0-0.9,0-1.4-0.1-2.4c-0.2,9.7,0.1,18.2-0.1,28.4c0-1-0.1-2.9-0.2-3.2c-0.1,2,0,4.3,0.1,6.4
						c0,1.1,0.1,2.1,0,2.9c0,0.4,0,0.8-0.1,1.2c0,0.2,0,0.4-0.1,0.5c0,0.2-0.1,0.4-0.1,0.5c0,3.5,0.2,2.8,0.2,0.4c0,1,0,2,0,3
						c-5.9,0-12,0-18.1,0c-5.6,0-11.3,0-16.9,0.1c-11.4,0.1-22.8,0.1-34.2,0.2c-16.7-0.3-1-0.8-14.2-0.4c-1.1-0.1-0.8,0.2-1,0.1
						c-5.1,0.1-7.9-0.5-11.5-0.3c1.5,0.3-2.4,0.2-2.5,0.3c-10.2-0.2-12.2-0.4-20.3-0.2l0.6-0.2c-9.4,0.4-20.4,0.2-28.3,0.7
						c-52,0.1-101.9,0.3-152.7,0.4c-50.2-0.1-99.3,0.1-150.2-0.1c-11.9-0.4-12.8-0.4-25.9-0.2c0.5-0.1,1.4-0.1,0.5-0.1
						c-0.7,0.3-9.2,0-10.5,0.3c-6.2,0-12.3,0-18.2,0c0-13.6,0-26.9-0.1-41.2c0,3.1,0.3,4.6,0.3,1l-0.2-3.8l0.1-0.6
						c0-2.5-0.2-5.2-0.3-2.6c-0.3-48.7,0.4-96.6,0.3-144.2c0.1-11.3,0-27.4-0.1-39.7c0.2-18.2,0.4-35.6,0.5-53
						c0-8.7,0.1-17.4,0.1-26.3c0-2.2,0-4.4,0-6.7c0-1.1,0-2.2,0-3.4c0-0.6,0-1.1,0-1.7c0-0.6,0.1-1.3,0.2-1.9
						c0.5-2.5,1.9-4.9,3.9-6.5c2-1.7,4.6-2.6,7.2-2.7c0,0-0.3,0.1-1.1,0.2c-0.8,0.2-2,0.4-3.5,1.3c-1.5,0.8-3.3,2.2-4.6,4.7
						c-0.6,1.2-1.1,2.7-1.2,4.4C79.1,30.6,79.2,32.3,79.2,34.2z"/>
					<path class="st1" d="M100.8,19.2c1.3,0.2,5.5,0.3,2.2,0.5C102.5,19.6,100.3,19.4,100.8,19.2z"/>
					<path class="st1" d="M214,20.9c0.1,0,1.6,0.1,2,0.1c-1.4,0-2.7,0.2-3.8,0.1C213.6,21.1,213.4,21,214,20.9z"/>
					<path class="st1" d="M242.9,21c-0.4,0.1-6.6,0.3-10.3,0.3L242.9,21z"/>
					<path class="st1" d="M269.9,21.6c2.3,0.1,1.7,0.2-1.5,0.2C268.2,21.7,269.3,21.7,269.9,21.6z"/>
					<path class="st1" d="M271.8,21.3c2.2,0,3.4,0.1,4.4,0.2C276.2,21.3,271.1,21.5,271.8,21.3z"/>
					<path class="st1" d="M330.4,21.7c1.4,0,4.5-0.1,5.8,0C334.7,21.6,329.3,21.9,330.4,21.7z"/>
					<path class="st1" d="M357.6,21.5c0.9,0,1.2,0,2.3,0c1.6,0.1-0.1,0.2-1.5,0.2L357.6,21.5z"/>
					<polygon class="st1" points="578.4,297.5 578.4,294.6 578.5,295 					"/>
					<path class="st1" d="M414.7,348.7c-2.9,0.1-2-0.1-2.5-0.2C414.9,348.5,411.2,348.7,414.7,348.7z"/>
					<polygon class="st1" points="297.7,349.4 298.6,349.4 298.3,349.7 					"/>
				</g>
			</g>
		</g>
	</g>
</g>
<g id="_Rectangle_3">
	<path class="st2" d="M19.5,349.8h620c2.8,0,5,2.2,5,5v5c0,11-9,20-20,20h-590c-11,0-20-9-20-20v-5C14.5,352,16.8,349.8,19.5,349.8z
		"/>
	<g>
		<g>
			<g>
				<g>
					<path class="st1" d="M22.6,349.3c-4.8,0.1,2.6,0.3-3.1,0.1C20.2,349.3,21.1,349.2,22.6,349.3z"/>
					<path class="st1" d="M14.4,362.8c0.4,1.9,1,3.9,2,5.7c0.9,1.8,2.2,3.6,3.7,5.1c3,3.1,7.2,5.4,11.7,6c2.3,0.3,4.5,0.2,6.8,0.2
						c2.3,0,4.5,0,6.8,0c4.5,0,8.9-0.1,13.1-0.2c2,0-0.5,0.4,3.9,0.3c16.3-0.6,42-0.2,61.8,0.2l-1.2,0.1c3.8,0.1,8.4-0.3,12.4-0.3
						c0,0.1-1.3,0.1-0.4,0.2c1-0.2,7.2-0.1,8.9-0.3c1.6,0.1,1.4,0.3,3.5,0.4l2.3-0.3c6.4-0.6,15.5,0,24.2-0.3
						c-0.4,0.1-1.3,0.1-0.6,0.2c14-0.4,31.4-0.3,47-0.5c-0.6,0.1-1.2,0.3-0.3,0.4c0.8-0.3,5.6-0.4,9.8-0.4c1.9,0.3,7.2-0.3,12.1-0.1
						l-0.4,0.1c3.6-0.3,5.4,0.2,8.3-0.2l2.3,0.2c1.6-0.4,5.2,0.2,8.2,0l-0.1-0.1c2.8-0.1,4.3,0.1,6.9,0l0.2,0
						c6.1-0.1,9.7,0.1,9.6-0.2c2.2,0.3-5.9,0.1-2.6,0.5c20.2-0.3,41-0.3,61.3-0.3c2.3,0.1,3.8,0.2,4.3,0.3c2-0.1,7.6-0.1,9.5-0.2
						c-0.7,0,1.3,0.2,2.4,0.2c3.7,0.1,4-0.4,8.1-0.2c-1.6,0.1-2.2,0.2-1.6,0.3c3.5-0.2,8.1-0.2,12.2-0.3c-0.6,0.1-1.6,0.1-1.5,0.2
						c4.5-0.3,8.2,0.1,12.1-0.1l-1.5,0.2c6.3,0.2,1.9-0.4,7.3-0.3c-1.3,0.1-0.8,0.1-1.1,0.2c5.1-0.3,13.3-0.2,18.4-0.3
						c-0.3,0-0.2,0.1-0.2,0.1c5.5,0,11.3,0.1,17.4-0.1c2.2,0.1-0.7,0.5,5.1,0.4c-0.2-0.4,10-0.2,6.5-0.6c5,0.1,12.9,0.2,16.3,0.1
						c-2.3,0.1,2.4,0.5-1.7,0.5l3.1,0.2c-0.5,0.2-3.2-0.1-2.2,0.1c2.1,0,8.2-0.2,10-0.1c3.9-0.2,7.4-0.7,13.7-0.7
						c-2.9,0.1,1.7,0.4-0.3,0.5l8.7-0.7c2.1,0,0.5,0.3,3.5,0.2c-0.2-0.1,1.2-0.2,2.1-0.2c0.8,0,8.7-0.1,9.6,0.3
						c0.9,0.1-3.4,0.1-1.1,0.2c3.8,0,4-0.1,7.9-0.1l0.1,0c2.5,0.1,7.5-0.2,4.7-0.4c-1.8,0,0.7,0.2-1.9,0.1c1.8-0.2,6.3-0.3,10.1-0.3
						c-1.3,0.1-1.2,0.2-1.7,0.3c5.2-0.3,10.6-0.4,16.4-0.5c0.1-0.2-2.2,0.3-3,0.2c7.4,0.2,15.3-0.3,21.4,0c-1,0-0.5-0.2-0.5-0.2
						c3.6,0,3.4,0.3,5.7,0.2c0.2,0.1,2.9,0,5.3-0.1c1.2-0.1,0.6,0.1-1.5,0.1c3.3-0.1,16.7-0.4,24.3-0.1c-0.1-0.1,4.7-0.4,6.5-0.3
						l-0.7,0.2c1.6,0.1,5.9,0,6.2,0.2c3.8-0.3-14.5,0.2-9.4,0c1.3,0.2,7.1-0.4,6-0.1c3.6,0,7-0.3,10.4-0.1c-1,0-2.9,0.3,0,0.3
						c5,0,1.4-0.1,5.5-0.2l2.6-0.1c0.2-0.2,4.5,0,2.6-0.2c0.6,0.2,7.3-0.1,6.8,0.3l-0.7,0.3c2.2,0,3.6-0.3,5.3-0.4
						c0.3,0,0.9,0.1,0.7,0.1c0.2-0.2,1.4-0.2,2.9-0.4c0.4-0.1,0.8-0.1,1.1-0.2c0.4-0.1,0.8-0.2,1.1-0.3c0.8-0.2,1.4-0.5,2-0.8
						c2-0.7,4.4-2.1,6.2-3.8c1.8-1.7,3-3.5,3.6-4.3c0.7-1.5,1.3-3,1.6-4.6c0.2-0.8,0.3-1.6,0.4-2.5c0.1-0.4,0.1-0.9,0.1-1.3
						c0-0.5,0.1-0.9,0.1-1.4c0.1,0.8,0,1.8,0.1,2c0.1-0.6,0.1-1.1,0.1-1.5c0-0.4,0-0.8,0-1.2c0-0.8-0.1-1.5-0.1-2.6
						c0,0.1,0-0.1,0.1-0.6c0-0.5,0.1-1.1-0.1-1.8c-0.2-0.7-0.5-1.4-1.1-1.9c-0.5-0.6-1.2-0.9-1.8-1.1c-0.4-0.1-0.7-0.1-1-0.1
						c-0.3,0-0.5,0-0.7,0.1c-0.4,0-0.6,0.1-0.7,0.1c-0.2,0.1,0,0.2-0.1,0.3c-3.2-0.4-9.9,0.3-13.9-0.1c1.2-0.1,5.1-0.2,2.2-0.3
						c-3.2-0.4-6.4,0.3-11.6,0.1l1.3,0.4c-2.3-0.2-7.6,0.2-7.1-0.2c-1.7,0.1-6.1-0.1-5.5,0.2c-8.5-0.3-20.6,0.2-25.8-0.5
						c-1.2,0.1-4.2,0-3.6,0.2c2,0.2,2.8-0.1,3.6,0c-1.1,0-1.3,0.1-1.4,0.2c-2.6-0.1-4.7-0.1-2.2-0.4c-5.9-0.2-6,0.6-13.5,0.5
						c0.3-0.1-0.2-0.2-2.4-0.2l-4.1,0.3c-4.8-0.1-2.7-0.3-2.9-0.6c-2.6,0-5.7,0-6.9,0.2l-3.1-0.3c2.3,0.2-2.1,0.2-3.3,0.2l1.2-0.1
						c-0.5-0.1-3.5,0-5,0c0.4,0.2,3.4,0.2,5.1,0.3c-1.3,0.1-3.4,0.1-5.1,0.2c0.6-0.2-4.2-0.2-6.2-0.2c-2.4-0.1-2.6,0.2-3.3,0.2
						c-0.1-0.1-3.8,0-2-0.2c0.8,0,1.8,0.1,3.2,0c-1.5-0.1-1.4-0.3-4.6-0.2c-2.4,0.1,0.6,0.5-4,0.3c1.2-0.1,1.4-0.2,2.4-0.2l-4.3-0.1
						l-0.2,0.2c-0.6-0.1-0.2-0.1-0.4-0.1c-1.3,0.2-6.6,0.1-7.5,0.3c-2.2,0-4.6-0.2-6.6-0.2l0.4,0c-2.5-0.1-5.9,0-8,0.1l0.1,0
						c-1.4,0-4.7,0-6.4,0.1c-3.5-0.2-1.2-0.8-5-0.6c-3.5,0-5.6,0.4-4.1,0.6c-6.4-0.2-13.6,0.2-19.5-0.1c-0.9,0.1-0.3,0.1-2.2,0.2
						c-9.4-0.1-19.8,0.3-27.2-0.2c2.7-0.1,0.2-0.2,0.1-0.3c-2.2,0.2-2.7-0.2-3.5,0.1c0.2,0.2,0,0.3,2.6,0.4
						c-5.6,0.1-14.1,0.1-17.2-0.1c1.5,0.1,0.4,0.2-0.9,0.2c0.4-0.3-3.7-0.4-6.8-0.3l-0.4,0.2l-2-0.2c-1.2,0.1-1.3,0.4-4.4,0.2
						c-0.2-0.1-0.3-0.2-0.9-0.2c-3.2,0.2-7.8,0.4-11.3,0.3l-2.9-0.3c-1.5,0-4,0.2-1.4,0.3c-6-0.2-9.8-0.2-11.7-0.4
						c-10.3,0.6-25.2,0.6-37.1,0.6l0.4-0.1c-3.2-0.1-1.7,0.3-3.9,0.2c1-0.1-2.4-0.3,0.1-0.5c-4.6-0.2-5.9,0.3-8.9,0.3
						c-0.5,0.2,2.4-0.1,1.8,0.1c-0.5,0.1-6.3-0.1-7.1,0.1c-1.1-0.1-0.3-0.3,0.4-0.4l-2.8,0.1c-3.4-0.3,7.8-0.6,4.2-1l-2.6,0
						c-2.5-0.3,6.8-0.3,0.4-0.4c-2.8,0.1-5.2,0.6-2.7,0.7c-5.9,0.1-2.7,0.7-9,0.7c-1.7-0.2,5,0,3.8-0.3c-3-0.2-6,0.1-8.6,0
						c2.9,0.1,0.5,0.4-1.4,0.5c-3.2-0.1,2.1-0.3-2.5-0.3c-0.7,0.2-4.9,0.3-1.3,0.4c-1.6,0.4-4.7-0.1-7.2,0.2
						c-1.5-0.3,4.7-0.6-0.3-0.8c0.8,0.3-6.2,0.4-3.5,0.7c-2-0.1-2.2-0.3-0.7-0.4c-2.8-0.2-6.8,0.5-7.7,0l-1,0.3
						c-0.9-0.1-2.1-0.2-3.6-0.3c-2.5,0-7.9,0.4-7.7,0c-0.8,0-6.4,0-4.2,0.3c3.5,0.2,4-0.2,6,0.2c-2.5-0.3-5,0-7.1,0.1l-0.3-0.2
						c-1.2,0.1-4,0-4.7,0.2c0.9-0.1,0.4-0.2-0.5-0.2l-1.3,0.2c-4.9,0.1-1.1-0.4-5.9-0.3l3.6-0.2c-0.8,0-2.4-0.2-4.7-0.1
						c-0.9,0.2-2.5,0.5-3.3,0.6c-2.7,0.1-1.2-0.2-3.8,0l3.5-0.3c0.5-0.1-2.3-0.4-5.9-0.3c-2.3,0.1-5.8,0.4-2.2,0.5
						c-1.8,0-4.3-0.1-2.9-0.3c-4.1,0.1,0.5,0.2-3,0.4c-1.4-0.1-5.9-0.3-8.6-0.6l3.7-0.4l-2.4,0c3.2-0.3-1.6-0.2,0.2-0.5
						c-1.7,0-3.7,0.1-5.3,0.1c4.9,0.5-5.5,0.7-4,1.1c-6.7,0.1-4.2-1.1-11.1-0.4c1.1,0.1-2.1,0.5,2.1,0.3c-4.1,0-2.8,0.4-7.7,0.3
						c3.6-0.2-3.9-0.4,1.3-0.7c-0.4,0.1,2.9,0.1,3.7,0.1c-1.7-0.2,0.4-0.4-3.9-0.4c-2.6,0-6.1,0.1-5.6,0.3c0.1,0.3,4,0,2.3,0.2
						c-5.2,0.1-6-0.3-8.2,0.2c3.3,0,4.1,0.2,4,0.4l-3.8,0.1l0.7-0.2c-6.1-0.1-1.8,0.3-7.7,0.3l-2.8-0.3c1.4-0.3,8.6,0.1,7.5-0.3
						c-3.8,0-5.1,0.2-8.7,0.1c0.8,0,1.9-0.1,2.7-0.1c-1.4,0-2.7-0.6-8.2-0.3c-2.8,0.1-0.7,0.2-0.8,0.3c-6.1,0.1-8,0.2-11.9,0.3
						c0.8-0.3-7,0-2.6-0.4c2,0.2,10.9,0.2,13.1-0.1c-2.2-0.4,4.8,0.1,6.1-0.4c-4.9,0-4.7-0.4-5.5-0.7c-1.4,0-2.7,0.1-3.5,0.1
						c-0.6,0.2,1.2,0.2,1.3,0.5c-5.5-0.1-10.8,0.1-13.8,0.3c-1.8-0.1-1.3-0.4,0.9-0.4c-6.5,0.1-13.5,0-19.7,0c4,0.4-6.9,0.1-4.2,0.4
						c3.3,0.1,6.2,0.4,4.4,0.6c-2.1,0,0.1-0.2-0.8-0.3c-2.6,0.2-4.1-0.3-6.7,0c6-0.1,1.2-0.5,2.3-0.8c-4.3,0.2,0.2-0.2-4.1-0.2
						c-4.3,0.2-9.6,0.3-14.3,0.4c-6-0.3-15.2,0-20.5,0c-2.8-0.2-0.9-0.5-3.9-0.6c-3.6,0,2.6,0.4-2.6,0.2l0.5-0.1
						c-1.6,0.1-9.7-0.2-11.2,0.3l1.6-0.4c-1,0-1.9,0.1-2.7,0.1c0-0.1-1.2-0.2,0.4-0.3c-3.3-0.3-6.8,0-10.4,0.1l2.3,0.2
						c-6.1,0.2-10.1,0-16,0l0.2-0.2l-3.5,0.1c0.8-0.2-2.4-0.4-4.2-0.2l9.1-0.5c2.5,0.1-2.8,0.3-1.2,0.5c1.3,0.2,6.8,0.1,7.7-0.1
						c-2.1,0-2.2,0-3.8,0.1c-0.7-0.3,2.5-0.3,4-0.5c-1.1,0-2.6-0.1-2.9,0c2.1-0.2,4.3-0.2,7.9-0.2c-2.4,0.1,1.3,0.2,0.4,0.3
						c0.3-0.3,3.7-0.4,8.1-0.3c3.1,0.3,8.3-0.2,13.4-0.1c-2.1,0.3-4.7,0.5-7.8,0.6c3.2,0.1,3.6,0,6.8,0.1c1.5-0.2,2.7-0.5,6.8-0.6
						l0.2,0.2c3.8-0.1,3.8-0.4,8.6-0.3c8.3,0.1,16.8,0.1,23.1,0.1l0.2,0.2c3.5-0.4,11.7-0.2,16.4-0.4c8,0.2,17.4-0.2,21.6,0.2
						c14.2-0.2,26.6-0.3,41.2-0.2l-2.5,0.3c2.6-0.2,1.7,0.2,4.3,0.1c-3-0.2,3.6-0.3,5.4-0.5c6.5,0.2,14.9,0,20.7-0.2l0.2,0.2
						c5.9-0.4,12.9,0,20.1,0c0.8,0.1,2.2,0.3,4.3,0.3c4-0.3,6-0.3,11.8-0.5c4.2,0,11.1,0.1,15.4,0.2c15.9-0.5,32.2-0.2,48.8-0.4
						l1.2,0.2c16.1-0.5,35.8,0,49.6-0.3l-1.3,0.4c4.3,0.1,9.8-0.1,8.7-0.4c4.3,0.1,10.8-0.2,13.5,0.1c4.4,0.1,5.4-0.2,9.1-0.2
						c8.8,0.2,12.1,0.1,20.4,0l-2.1,0c-0.9,0.1-1,0.3,1.1,0.3c3.1-0.1,11.4,0.1,8.3-0.4c8.9,0.3,20.7-0.2,29.4,0.2
						c-0.7-0.1,1.4-0.2,2.4-0.2c7.8,0,16,0.3,22.2,0c1.2,0.1-2,0.2,1.2,0.2c1.9-0.1,0-0.2,2.4-0.2c12.6-0.2,25.6,0.3,37,0.2
						c20.4-0.3,41.7-0.1,61.3-0.2l-0.2,0.1c6.5-0.4,15.4,0.4,20.6-0.2c1.5,0.1,5.9,0,4.8,0.2c5.2-0.3,14.6,0.2,22.1-0.1
						c-0.7,0-1.1,0-1.9,0.1c1.9,0.1,3.7,0.1,5.6,0.1c0.9,0,1.8,0,2.7,0l0.7,0c0.2,0,0.6,0,0.8,0c0.6,0.1,1.2,0.2,1.7,0.4
						c2.2,0.9,3.9,3.1,4,5.5l0,0.5l0,0.4l0,0.7c0,0.5,0,1,0,1.4c0,1,0,1.9-0.1,3c0-0.9-0.1-2.3-0.1-2.6c-0.1,0.8,0,1.6,0,2.5
						c0,0.9,0,1.9-0.1,2.7c-0.1,0.4-0.1,0.9-0.2,1.3c-0.1,0.4-0.2,0.8-0.3,1.1c-0.2,0.7-0.4,1.3-0.7,1.7c-0.3,0.9-0.4,1.2-0.3,1.2
						c0.1,0,0.3-0.4,0.5-1c-0.8,2.2-2,4.3-3.6,6.1c-1.5,1.8-3.4,3.4-5.4,4.7c-2.1,1.3-4.4,2.2-6.7,2.7l-1.8,0.3
						c-0.6,0.1-1.2,0.1-1.8,0.1c-1.2,0.1-2.3,0-3.5,0.1c-9.2,0.1-18.5,0.1-27.6,0.2c-13.1-0.3-0.8-0.8-11.2-0.4
						c-0.8-0.1-0.6,0.2-0.8,0.1c-4,0.1-6.2-0.5-9-0.3c1.1,0.3-1.8,0.2-1.9,0.3c-8-0.2-9.6-0.4-16-0.2l0.5-0.2
						c-7.4,0.4-16,0.2-22.3,0.7c-40.9,0.1-80.2,0.3-120.1,0.4c-39.4-0.1-78.1,0.1-118.1-0.1c-9.4-0.4-10.1-0.4-20.4-0.2
						c0.4-0.1,1.1-0.1,0.4-0.1c-0.5,0.3-7.3,0-8.2,0.3c-14.8-0.1-28.5,0-43.7,0c2.4,0,3.6-0.3,0.8-0.3l-3,0.2l-0.5-0.1
						c-2,0-4.1,0.2-2.1,0.3c-38.3,0.3-75.9-0.4-113.4-0.3c-8.9-0.1-21.6,0-31.2,0.1c-7.2-0.1-14.2-0.2-21.1-0.3
						c-3.5,0-6.9-0.1-10.3-0.1l-5.1-0.1l-2.6,0c-0.9,0-1.8-0.1-2.7-0.2c-7.3-0.9-14-5.7-17-12.5c-0.2-0.4-0.4-0.9-0.5-1.3
						c-0.2-0.4-0.3-0.9-0.5-1.3c-0.2-0.9-0.5-1.8-0.6-2.7c-0.1-0.5-0.2-0.9-0.2-1.4l-0.1-1.4c-0.1-1,0-1.8,0-2.7c0-0.9,0-1.8,0-2.7
						c0-0.2,0-0.5,0-0.8c0-0.3,0.1-0.6,0.1-0.8c0.1-0.6,0.3-1.1,0.6-1.6c1-2,3.3-3.4,5.6-3.4c0,0-0.1,0-0.2,0
						c-0.2,0-0.4,0.1-0.7,0.2c-0.6,0.2-1.7,0.6-2.8,1.6c-0.5,0.5-1.1,1.2-1.4,2c-0.2,0.4-0.3,0.9-0.4,1.4c-0.1,0.5-0.1,1.1,0,1.6
						c0,1,0.1,2.2,0.1,3.4c0,0.6,0,1.3,0.1,2C14.2,361.3,14.2,362.1,14.4,362.8z"/>
					<path class="st1" d="M28.4,349.2c1,0.2,4.4,0.3,1.7,0.5C29.7,349.6,28,349.4,28.4,349.2z"/>
					<path class="st1" d="M117.4,350.9c0.1,0,1.3,0.1,1.5,0.1c-1.1,0-2.1,0.2-3,0.1C117.1,351.1,116.9,351,117.4,350.9z"/>
					<path class="st1" d="M140.2,351c-0.3,0.1-5.2,0.3-8.1,0.3L140.2,351z"/>
					<path class="st1" d="M161.4,351.6c1.8,0.1,1.3,0.2-1.1,0.2C160,351.7,160.9,351.7,161.4,351.6z"/>
					<path class="st1" d="M162.9,351.3c1.8,0,2.6,0.1,3.5,0.2C166.3,351.3,162.3,351.5,162.9,351.3z"/>
					<path class="st1" d="M208.9,351.7c1.1,0,3.5-0.1,4.5,0C212.3,351.6,208.1,351.9,208.9,351.7z"/>
					<path class="st1" d="M230.3,351.5c0.7,0,1,0,1.8,0c1.3,0.1-0.1,0.2-1.1,0.2L230.3,351.5z"/>
					<polygon class="st1" points="619.8,350.9 617.5,351 617.9,350.8 					"/>
					<path class="st1" d="M517.8,378.7c-2.3,0.1-1.6-0.1-2-0.2C517.9,378.5,515.1,378.7,517.8,378.7z"/>
					<polygon class="st1" points="425.8,379.4 426.5,379.4 426.2,379.7 					"/>
				</g>
			</g>
		</g>
	</g>
</g>
<g id="_Rectangle_4">
	<path class="st3" d="M106.5,49h446c1.7,0,3,1.3,3,3v276.4c0,1.7-1.3,3-3,3h-446c-1.7,0-3-1.3-3-3V52C103.5,50.4,104.9,49,106.5,49z
		"/>
	<g>
		<g>
			<g>
				<g>
					<path class="st1" d="M110.1,48.5c-5.4,0.1,2.9,0.3-3.5,0.1C107.3,48.5,108.3,48.4,110.1,48.5z"/>
					<path class="st1" d="M103.2,65.1c0.8,17.3,0,40.1,0.5,59c0,2.2-0.4-0.6-0.3,4.4c0.6,18.4,0.2,47.3-0.2,69.7l-0.1-1.4
						c-0.1,4.3,0.3,9.5,0.3,14c-0.1,0-0.1-1.4-0.2-0.4c0.2,1.1,0.1,8.2,0.3,10.1c-0.1,1.8-0.3,1.6-0.4,3.9l0.3,2.6
						c0.6,7.2,0,17.4,0.3,27.2c-0.1-0.5-0.1-1.4-0.2-0.7c0.4,15.7,0.3,35.4,0.5,53c-0.1-0.7-0.3-1.3-0.4-0.3c0.3,0.9,0.4,6.3,0.4,11
						c-0.1,1.1-0.1,3.1,0,5.5c0,1.2,0.1,2.6,0.1,3.9c0,0.3,0,0.7,0,1c0,0.4,0,0.7,0,1c0.1,0.6,0.4,1.2,0.8,1.6c0,0-0.3-0.3-0.3-0.3
						c0.7,0.7,1.4,0.9,2.2,0.9c0.8,0,1.5,0,2.3,0c1.4,0,2.7,0.1,4.4-0.1l2.6,0.2c1.8-0.4,5.9,0.2,9.3,0l-0.1-0.1
						c3.2-0.1,4.8,0.1,7.8,0l0.3,0c6.9-0.1,10.9,0.1,10.8-0.2c2.4,0.3-6.7,0.1-2.9,0.5c22.8-0.3,46.2-0.3,69.1-0.3
						c2.6,0.1,4.3,0.2,4.8,0.3c2.3-0.1,8.6-0.1,10.7-0.2c-0.8,0,1.5,0.2,2.7,0.2c4.2,0.1,4.6-0.4,9.1-0.2c-1.8,0.1-2.4,0.2-1.8,0.3
						c3.9-0.2,9.1-0.2,13.7-0.3c-0.7,0.1-1.8,0.1-1.7,0.2c5-0.3,9.2,0.1,13.6-0.1l-1.7,0.2c7.1,0.2,2.1-0.4,8.3-0.3
						c-1.5,0.1-1,0.1-1.2,0.2c5.7-0.3,15-0.2,20.8-0.3c-0.3,0-0.3,0.1-0.3,0.1c6.2,0,12.8,0.1,19.6-0.1c2.5,0.1-0.8,0.5,5.8,0.4
						c-0.2-0.4,11.2-0.2,7.3-0.6c5.6,0.1,14.6,0.2,18.3,0.1c-2.5,0.1,2.8,0.5-1.9,0.5l3.5,0.2c-0.5,0.2-3.6-0.1-2.5,0.1
						c2.4,0,9.2-0.2,11.3-0.1c4.4-0.2,8.4-0.7,15.4-0.7c-3.3,0.1,1.9,0.4-0.4,0.5l9.8-0.7c2.3,0,0.5,0.3,3.9,0.2
						c-0.2-0.1,1.3-0.2,2.3-0.2c0.9,0,9.8-0.1,10.8,0.3c1,0.1-3.8,0.1-1.2,0.2c4.3,0,4.5-0.1,8.9-0.1l0.1,0c2.9,0.1,8.4-0.2,5.3-0.4
						c-2,0,0.8,0.2-2.2,0.1c2-0.2,7.1-0.3,11.4-0.3c-1.5,0.1-1.3,0.2-1.9,0.3c5.8-0.3,12-0.4,18.5-0.5c0.1-0.2-2.4,0.3-3.4,0.2
						c8.3,0.2,17.2-0.3,24.2,0c-1.1,0-0.6-0.2-0.5-0.2c4,0,3.8,0.3,6.5,0.2c0.3,0.1,3.3,0,6-0.1c1.4-0.1,0.7,0.1-1.6,0.1
						c3.8-0.1,18.8-0.4,27.4-0.1c-0.2-0.1,5.3-0.4,7.3-0.3l-0.8,0.2c1.8,0.1,6.7,0,7,0.2c4.3-0.3-16.4,0.2-10.6,0
						c1.5,0.2,8-0.4,6.8-0.1c4,0,7.9-0.3,11.7-0.1c-1.1,0-3.2,0.3,0,0.3c5.7,0,1.6-0.1,6.2-0.2l2.9-0.1c0.2-0.2,5.1,0,3-0.2
						c0.7,0.2,8.3-0.1,7.7,0.3l-0.8,0.3c2.5,0,4-0.3,6-0.4c0.3,0,1,0.1,0.8,0.1c0.4-0.4,5.9,0,8.8-0.3c1.3,0,2.8,0.1,4.3,0.1
						c1.5,0,3,0,4.5,0c0.9,0,1.6-0.8,1.7-1.5c0-0.1,0-0.2,0-0.3c0-0.1,0-0.3,0-0.4c0-0.3,0-0.5,0-0.7c0-0.5,0.1-0.9,0.1-1.2
						c-0.1-4-0.3-7.6-0.2-12.1c0,0.9,0.1,2.1,0.2,2.4c0.1-2.8,0-3.5-0.1-6.1c0.1,0.6,0.3-5.7,0.4-8.8c-0.1-3.9-0.4-2.6-0.5-3
						c0.4-3.6-0.3-11.1,0.1-15.6c0.1,1.4,0.2,5.8,0.3,2.5c0.4-3.6-0.3-7.3-0.1-13.1l-0.4,1.4c0.2-2.6-0.2-8.6,0.2-8
						c-0.1-1.9,0.1-6.9-0.2-6.2c0.3-9.5-0.2-23.2,0.5-29.1c-0.1-1.4,0-4.8-0.2-4.1c-0.2,2.3,0.1,3.2,0,4c0-1.2-0.1-1.5-0.2-1.6
						c0.1-3,0.1-5.3,0.4-2.5c0.2-6.6-0.6-6.8-0.5-15.2c0.1,0.4,0.2-0.3,0.2-2.7l-0.3-4.7c0.1-5.4,0.3-3.1,0.6-3.2
						c0-2.9,0-6.5-0.2-7.8l0.3-3.5c-0.2,2.6-0.2-2.4-0.2-3.8l0.1,1.4c0.1-0.5,0-3.9,0-5.6c-0.2,0.4-0.2,3.8-0.3,5.7
						c-0.1-1.5-0.1-3.8-0.2-5.8c0.2,0.7,0.2-4.7,0.2-7c0.1-2.6-0.2-3-0.2-3.8c0.1-0.1,0-4.3,0.2-2.3c0,0.9-0.1,2.1,0,3.6
						c0.1-1.7,0.3-1.5,0.2-5.2c-0.1-2.7-0.5,0.7-0.3-4.5c0.1,1.4,0.2,1.6,0.2,2.7l0.1-4.8l-0.2-0.2c0.1-0.7,0.1-0.2,0.1-0.5
						c-0.2-1.4-0.1-7.4-0.3-8.5c0-2.4,0.2-5.1,0.2-7.5l0,0.4c0.1-2.9,0-6.6-0.1-9l0,0.1c0-1.6,0-5.2-0.1-7.2
						c0.2-3.9,0.8-1.3,0.6-5.7c0-4-0.4-6.3-0.6-4.7c0.2-7.2-0.2-15.3,0.1-22c-0.1-1-0.1-0.4-0.2-2.5c0.1-10.5-0.3-22.3,0.2-30.7
						c0.1,3.1,0.2,0.2,0.3,0.1c-0.2-2.5,0.2-3-0.1-3.9c-0.2,0.3-0.3,0-0.4,3c0-1.6,0-3.3-0.1-5.2c0-0.9,0-1.8,0-2.8l0-0.7
						c0-0.2,0-0.5,0-0.6c0-0.2-0.1-0.5-0.2-0.7c-0.2-0.4-0.7-0.7-1.1-0.8c-0.1,0-0.1,0-0.2,0c0,0-0.1,0-0.2,0c-0.2,0-0.4,0-0.6,0
						c-0.4,0-0.8,0-1.2,0c-1.5,0-2.7-0.1-3.6-0.1c1.7,0.1,0.4,0.2-1,0.2c0.5-0.3-4.2-0.4-7.7-0.3l-0.5,0.2l-2.3-0.2
						c-1.3,0.1-1.5,0.4-5,0.2c-0.2-0.1-0.4-0.2-1-0.2c-3.6,0.2-8.7,0.4-12.7,0.3l-3.2-0.3c-1.7,0-4.5,0.2-1.6,0.3
						c-6.7-0.2-11.1-0.2-13.2-0.4c-11.6,0.6-28.4,0.6-41.8,0.6l0.4-0.1c-3.6-0.1-1.9,0.3-4.4,0.2c1.2-0.1-2.8-0.3,0.1-0.5
						c-5.2-0.2-6.7,0.3-10,0.3c-0.5,0.2,2.7-0.1,2.1,0.1c-0.6,0.1-7.2-0.1-8,0.1c-1.3-0.1-0.3-0.3,0.4-0.4l-3.2,0.1
						c-3.9-0.3,8.8-0.6,4.8-1l-2.9,0c-2.8-0.3,7.7-0.3,0.4-0.4c-3.2,0.1-5.9,0.6-3.1,0.7c-6.6,0.1-3.1,0.7-10.2,0.7
						c-1.9-0.2,5.7,0,4.3-0.3c-3.3-0.2-6.7,0.1-9.7,0c3.3,0.1,0.5,0.4-1.6,0.5c-3.6-0.1,2.3-0.3-2.8-0.3c-0.8,0.2-5.5,0.3-1.5,0.4
						c-1.8,0.4-5.3-0.1-8.1,0.2c-1.7-0.3,5.3-0.6-0.4-0.8c0.9,0.3-6.9,0.4-4,0.7c-2.2-0.1-2.4-0.3-0.8-0.4c-3.2-0.2-7.6,0.5-8.7,0
						l-1.1,0.3c-1-0.1-2.4-0.2-4-0.3c-2.8,0-8.9,0.4-8.7,0c-0.9,0-7.2,0-4.8,0.3c3.9,0.2,4.5-0.2,6.7,0.2c-2.8-0.3-5.7,0-8,0.1
						l-0.4-0.2c-1.4,0.1-4.5,0-5.3,0.2c1-0.1,0.5-0.2-0.6-0.2l-1.4,0.2c-5.5,0.1-1.3-0.4-6.7-0.3l4.1-0.2c-0.9,0-2.7-0.2-5.3-0.1
						c-1,0.2-2.9,0.5-3.7,0.6c-3,0.1-1.4-0.2-4.3,0l3.9-0.3c0.6-0.1-2.6-0.4-6.7-0.3c-2.6,0.1-6.6,0.4-2.5,0.5c-2,0-4.9-0.1-3.3-0.3
						c-4.6,0.1,0.6,0.2-3.4,0.4c-1.6-0.1-6.7-0.3-9.7-0.6l4.1-0.4l-2.7,0c3.6-0.3-1.8-0.2,0.2-0.5c-1.9,0-4.1,0.1-6,0.1
						c5.5,0.5-6.1,0.7-4.6,1.1c-7.5,0.1-4.7-1.1-12.5-0.4c1.3,0.1-2.4,0.5,2.3,0.3c-4.7,0-3.2,0.4-8.7,0.3c4.1-0.2-4.4-0.4,1.5-0.7
						c-0.4,0.1,3.3,0.1,4.2,0.1c-1.9-0.2,0.4-0.4-4.4-0.4c-2.9,0-6.9,0.1-6.3,0.3c0.1,0.3,4.5,0,2.6,0.2c-5.8,0.1-6.8-0.3-9.2,0.2
						c3.7,0,4.6,0.2,4.5,0.4l-4.3,0.1l0.8-0.2c-6.8-0.1-2,0.3-8.7,0.3l-3.1-0.3c1.6-0.3,9.7,0.1,8.5-0.3c-4.3,0-5.7,0.2-9.8,0.1
						c0.9,0,2.1-0.1,3-0.1c-1.5,0-3.1-0.6-9.2-0.3c-3.2,0.1-0.8,0.2-0.9,0.3c-6.9,0.1-9,0.2-13.5,0.3c0.9-0.3-7.9,0-3-0.4
						c2.3,0.2,12.3,0.2,14.7-0.1c-2.5-0.4,5.4,0.1,6.9-0.4c-5.6,0-5.3-0.4-6.2-0.7c-1.5,0-3,0.1-4,0.1c-0.7,0.2,1.4,0.2,1.5,0.5
						c-6.2-0.1-12.2,0.1-15.6,0.3c-2.1-0.1-1.4-0.4,1-0.4c-7.4,0.1-15.3,0-22.2,0c4.5,0.4-7.8,0.1-4.7,0.4c3.8,0.1,7,0.4,4.9,0.6
						c-2.3,0,0.1-0.2-0.9-0.3c-3,0.2-4.6-0.3-7.6,0c6.7-0.1,1.3-0.5,2.5-0.8c-4.9,0.2,0.2-0.2-4.6-0.2c-4.8,0.2-10.8,0.3-16.2,0.4
						c-6.8-0.3-17.1,0-23.1,0c-3.2-0.2-1-0.5-4.4-0.6c-4,0,3,0.4-3,0.2l0.6-0.1c-1.8,0.1-10.9-0.2-12.7,0.3l1.8-0.4
						c-1.1,0-2.1,0.1-3.1,0.1c0-0.1-1.3-0.2,0.5-0.3c-3.7-0.3-7.7,0-11.7,0.1l2.6,0.2c-6.8,0.2-11.4,0-18,0l0.2-0.2l-3.9,0.1
						c1-0.2-2.6-0.4-4.7-0.2l10.2-0.5c2.8,0.1-3.1,0.3-1.3,0.5c1.5,0.2,7.6,0.1,8.6-0.1c-2.3,0-2.5,0-4.3,0.1
						c-0.8-0.3,2.8-0.3,4.5-0.5c-1.2,0-3-0.1-3.2,0c2.4-0.2,4.8-0.2,8.9-0.2c-2.7,0.1,1.5,0.2,0.4,0.3c0.3-0.3,4.2-0.4,9.1-0.3
						c3.5,0.3,9.3-0.2,15.1-0.1c-2.3,0.3-5.3,0.5-8.8,0.6c3.6,0.1,4,0,7.6,0.1c1.7-0.2,3-0.5,7.7-0.6l0.3,0.2
						c4.3-0.1,4.3-0.4,9.7-0.3c9.3,0.1,18.9,0.1,26,0.1l0.3,0.2c3.9-0.4,13.2-0.2,18.5-0.4c9.1,0.2,19.7-0.2,24.3,0.2
						c16-0.2,29.9-0.3,46.5-0.2l-2.8,0.3c3-0.2,1.9,0.2,4.8,0.1c-3.3-0.2,4-0.3,6.1-0.5c7.4,0.2,16.8,0,23.4-0.2l0.3,0.2
						c6.6-0.4,14.5,0,22.7,0c0.9,0.1,2.4,0.3,4.9,0.3c4.5-0.3,6.8-0.3,13.3-0.5c4.8,0,12.5,0.1,17.4,0.2c18-0.5,36.3-0.2,55-0.4
						l1.3,0.2c18.1-0.5,40.4,0,55.9-0.3l-1.5,0.4c4.8,0.1,11-0.1,9.8-0.4c4.9,0.1,12.1-0.2,15.2,0.1c5,0.1,6.1-0.2,10.2-0.2
						c5,0.1,8.4,0.1,11.7,0.1c0.8,0,1.7,0,2.5,0l0.6,0l0.3,0l0.2,0l0.2,0c0.6,0,1.3,0.2,1.9,0.5c1.2,0.6,2.2,1.9,2.3,3.4
						c0,0.2,0,0.4,0,0.6l0,0.4c0,0.3,0,0.5,0,0.8c0,0.5,0,1.1,0,1.7l0-2.3c0-0.3-0.1-0.5-0.1-0.6c0-0.1-0.1-0.2-0.1-0.1
						c-0.1,0.2-0.1,0.7-0.1,1.9c0.1,3.5-0.1,12.9,0.4,9.4c-0.3,10,0.2,23.3-0.2,33.1c0.1-0.8,0.2,1.6,0.2,2.7c0,8.8-0.3,18,0,25
						c-0.1,1.4-0.2-2.2-0.2,1.3c0.1,2.1,0.2,0.1,0.2,2.7c0.2,14.2-0.3,28.8-0.2,41.8c0.3,23,0.1,47,0.2,69l-0.1-0.3
						c0.4,7.4-0.4,17.3,0.2,23.2c-0.1,1.7,0,6.7-0.2,5.4c0.3,5.9-0.2,16.5,0.1,25c0-0.8,0-1.2-0.1-2.1c-0.2,8.6,0.1,16.2-0.1,25.2
						c0-0.9-0.1-2.6-0.2-2.9c-0.2,3.5,0.4,8.3-0.1,10.2c0,2,0.2,1.4,0.2,0.2c0,1.2,0,2.5,0,3.7l0,1.9c0,0.1,0,0.4,0,0.6
						c0,0.2-0.1,0.5-0.1,0.7c-0.1,0.4-0.3,0.9-0.6,1.3c-0.5,0.8-1.3,1.4-2.1,1.7c-0.4,0.2-0.9,0.3-1.4,0.3c-0.4,0-0.7,0-1,0
						c-1.3,0-2.5,0-3.8,0c-5.1,0-10.2,0-15.4,0.1c-10.3,0.1-20.8,0.1-31.1,0.2c-14.8-0.3-0.9-0.8-12.6-0.4c-1-0.1-0.7,0.2-0.9,0.1
						c-4.5,0.1-7-0.5-10.2-0.3c1.3,0.3-2.1,0.2-2.2,0.3c-9-0.2-10.9-0.4-18-0.2l0.5-0.2c-8.4,0.4-18.1,0.2-25.1,0.7
						c-46.1,0.1-90.3,0.3-135.3,0.4c-44.5-0.1-88,0.1-133.1-0.1c-10.6-0.4-11.4-0.4-23-0.2c0.5-0.1,1.2-0.1,0.4-0.1
						c-0.6,0.3-8.2,0-9.3,0.3c-8.3,0-16.4,0-24.4,0l-1.5,0l-0.2,0l-0.3,0c-0.2,0-0.4,0-0.6-0.1c-0.4-0.1-0.8-0.2-1.2-0.4
						c-1.5-0.7-2.6-2.3-2.8-3.9c0-0.2,0-0.5,0-0.6l0-0.4l0-0.8l0-1.5c0-1,0-2,0-3.1c0-4.1,0-8.3,0-12.6c0,2.7,0.3,4.1,0.3,0.9
						l-0.2-3.4l0.1-0.5c0-2.2-0.2-4.6-0.3-2.3c-0.3-43.1,0.4-85.6,0.3-127.8c0.1-10,0-24.3-0.1-35.2c0.2-16.2,0.4-31.5,0.5-46.9
						c0-7.7,0.1-15.4,0.1-23.3c0-3.9,0-7.9,0-11.9c0-2,0-4,0-6l0-1.6c0-0.7,0.2-1.5,0.6-2.1c0.8-1.3,2.2-2.1,3.7-2.1
						c0,0-0.1,0-0.3,0.1c-0.2,0-0.5,0.1-0.9,0.3c-0.4,0.2-0.9,0.4-1.4,0.9c-0.5,0.5-1,1.2-1.2,2c-0.1,0.2-0.1,0.5-0.1,0.7
						c0,0.2,0,0.5,0,0.7c0,0.4,0.1,0.8,0.1,1.3c0.1,0.9,0.1,1.9,0.2,3.1C103,58.9,103.1,61.8,103.2,65.1z"/>
					<path class="st1" d="M116.5,48.4c1.1,0.2,4.9,0.3,1.9,0.5C118.1,48.8,116.1,48.6,116.5,48.4z"/>
					<path class="st1" d="M216.9,50.1c0.1,0,1.4,0.1,1.7,0.1c-1.2,0-2.4,0.2-3.4,0.1C216.5,50.3,216.3,50.2,216.9,50.1z"/>
					<path class="st1" d="M242.5,50.2c-0.4,0.1-5.9,0.3-9.1,0.3L242.5,50.2z"/>
					<path class="st1" d="M266.4,50.8c2.1,0.1,1.5,0.2-1.3,0.2C264.9,50.9,265.8,50.9,266.4,50.8z"/>
					<path class="st1" d="M268.1,50.5c2,0,3,0.1,3.9,0.2C272,50.5,267.5,50.7,268.1,50.5z"/>
					<path class="st1" d="M320,50.9c1.2,0,3.9-0.1,5.1,0C323.8,50.8,319.1,51.1,320,50.9z"/>
					<path class="st1" d="M344.1,50.7c0.8,0,1.1,0,2,0c1.4,0.1-0.1,0.2-1.3,0.2L344.1,50.7z"/>
					<polygon class="st1" points="554.4,278 554.3,275.4 554.5,275.7 					"/>
					<path class="st1" d="M415.3,330.4c-2.6,0.1-1.8-0.1-2.2-0.2C415.4,330.2,412.2,330.4,415.3,330.4z"/>
					<polygon class="st1" points="311.6,331.1 312.4,331.1 312.1,331.4 					"/>
				</g>
			</g>
		</g>
	</g>
</g>
<circle id="_Path_" class="st4" cx="329.5" cy="36.5" r="3"/>
<path class="st5" d="M319.2,243.9l-44.1-44.1l43.9-43.9c0.8-1,0.7-2.4-0.2-3.3c-0.9-0.8-2.2-0.8-3,0l-45.7,45.7
	c-0.8,0.9-0.8,2.3,0.1,3.1c0,0,0,0,0,0l45.7,45.7c1,0.8,2.4,0.7,3.3-0.2C320,246.1,320,244.8,319.2,243.9z"/>
<path class="st5" d="M339.8,155.7l44.2,44.2L340,243.8c-0.8,1-0.7,2.4,0.2,3.3c0.9,0.8,2.2,0.8,3,0l45.7-45.7c0.8-1,0.7-2.4-0.3-3.3
	L343,152.5c-0.8-1-2.2-1.2-3.2-0.4s-1.2,2.2-0.4,3.2C339.5,155.5,339.7,155.6,339.8,155.7z"/>
</svg>
