<svg id="Layer_1" data-name="Layer 1" xmlns="http://www.w3.org/2000/svg" xmlns:xlink="http://www.w3.org/1999/xlink" viewBox="0 0 565.88 555.27"><defs><style>.cls-1,.cls-11,.cls-4,.cls-6,.cls-9{fill:none;}.cls-2{clip-path:url(#clip-path);}.cls-3{fill:#33333d;}.cls-4,.cls-6,.cls-9{stroke:#33333d;}.cls-11,.cls-4,.cls-6,.cls-9{stroke-miterlimit:10;}.cls-4{stroke-width:0.97px;}.cls-5{fill:#222;}.cls-6{stroke-width:0.99px;}.cls-7{clip-path:url(#clip-path-3);}.cls-8{fill:#eee;}.cls-11,.cls-9{stroke-width:0.63px;}.cls-10{fill:#b8aa9f;}.cls-11{stroke:#000;}.cls-12{clip-path:url(#clip-path-5);}</style><clipPath id="clip-path" transform="translate(-98.08 -122.36)"><rect class="cls-1" x="-67.25" y="21" width="758" height="758"/></clipPath><clipPath id="clip-path-3" transform="translate(-98.08 -122.36)"><rect class="cls-1" x="366.06" y="169" width="501.18" height="501.18"/></clipPath><clipPath id="clip-path-5" transform="translate(-98.08 -122.36)"><path class="cls-1" d="M608.51,249.3a4.39,4.39,0,0,0-4.39,4.39v87.71a1.88,1.88,0,0,0,1.88,1.88h21.3a1.88,1.88,0,0,0,1.88-1.88V253.68a4.39,4.39,0,0,0-4.39-4.39H608.51Z"/></clipPath></defs><title>project-icon</title><g class="cls-2"><g class="cls-2"><path class="cls-3" d="M510.73,674.78H103.3A4.74,4.74,0,0,1,98.57,670V130a4.74,4.74,0,0,1,4.74-4.74H510.73a14.21,14.21,0,0,1,14.21,14.21V660.56a14.21,14.21,0,0,1-14.21,14.21" transform="translate(-98.08 -122.36)"/><path class="cls-4" d="M510.73,674.78H103.3A4.74,4.74,0,0,1,98.57,670V130a4.74,4.74,0,0,1,4.74-4.74H510.73a14.21,14.21,0,0,1,14.21,14.21V660.56A14.21,14.21,0,0,1,510.73,674.78Z" transform="translate(-98.08 -122.36)"/><path class="cls-5" d="M497.46,677.14H467.14a2.84,2.84,0,0,1-2.84-2.84V125.7a2.84,2.84,0,0,1,2.84-2.84h30.32a2.84,2.84,0,0,1,2.84,2.84V674.3a2.84,2.84,0,0,1-2.84,2.84" transform="translate(-98.08 -122.36)"/><rect class="cls-6" x="366.22" y="0.49" width="36.01" height="554.29" rx="2.84" ry="2.84"/></g></g><g class="cls-7"><g class="cls-7"><path class="cls-8" d="M634.51,263.29h-5.64V267h5.64v58.26a4.09,4.09,0,0,0,0,8.19c0.28,0,.56,0,0.83,0h2.93V263.29h-3.76Z" transform="translate(-98.08 -122.36)"/><path class="cls-9" d="M634.51,263.29h-5.64V267h5.64v58.26a4.09,4.09,0,0,0,0,8.19c0.28,0,.56,0,0.83,0h2.93V263.29h-3.76Z" transform="translate(-98.08 -122.36)"/><rect class="cls-10" x="508.55" y="220.9" width="20.05" height="256.86"/><rect class="cls-11" x="508.55" y="220.9" width="20.05" height="256.86"/><path class="cls-10" d="M608.51,249.3H624.8a4.39,4.39,0,0,1,4.39,4.39v87.71a1.88,1.88,0,0,1-1.88,1.88H606a1.88,1.88,0,0,1-1.88-1.88V253.68a4.39,4.39,0,0,1,4.39-4.39" transform="translate(-98.08 -122.36)"/><path class="cls-11" d="M608.51,249.3H624.8a4.39,4.39,0,0,1,4.39,4.39v87.71a1.88,1.88,0,0,1-1.88,1.88H606a1.88,1.88,0,0,1-1.88-1.88V253.68A4.39,4.39,0,0,1,608.51,249.3Z" transform="translate(-98.08 -122.36)"/><path class="cls-3" d="M624.8,607.69H608.51a1.88,1.88,0,0,1-1.88-1.88v-5.69h20v5.69a1.88,1.88,0,0,1-1.88,1.88" transform="translate(-98.08 -122.36)"/><path class="cls-11" d="M624.8,607.69H608.51a1.88,1.88,0,0,1-1.88-1.88v-5.69h20v5.69A1.88,1.88,0,0,1,624.8,607.69Z" transform="translate(-98.08 -122.36)"/></g><g class="cls-12"><rect class="cls-3" x="476.92" y="119.31" width="88.96" height="14.1"/></g><g class="cls-7"><path class="cls-9" d="M608.51,249.3H624.8a4.39,4.39,0,0,1,4.39,4.39v87.71a1.88,1.88,0,0,1-1.88,1.88H606a1.88,1.88,0,0,1-1.88-1.88V253.68A4.39,4.39,0,0,1,608.51,249.3Z" transform="translate(-98.08 -122.36)"/></g></g></svg>